<?xml version="1.0" standalone="no"?>
<!DOCTYPE svg PUBLIC "-//W3C//DTD SVG 20010904//EN"
 "http://www.w3.org/TR/2001/REC-SVG-20010904/DTD/svg10.dtd">
<svg version="1.0" xmlns="http://www.w3.org/2000/svg"
 width="2328.000000pt" height="2202.000000pt" viewBox="0 0 2328.000000 2202.000000"
 preserveAspectRatio="xMidYMid meet">
<metadata>
Created by potrace 1.16, written by Peter Selinger 2001-2019
</metadata>
<g transform="translate(0.000000,2202.000000) scale(0.100000,-0.100000)"
fill="#A9793F" stroke="none">
<path d="M11245 20260 c-55 -4 -152 -13 -215 -19 -63 -6 -180 -18 -260 -26
-80 -8 -161 -19 -180 -25 -19 -5 -84 -17 -144 -26 -61 -9 -133 -22 -160 -30
-28 -8 -87 -23 -131 -33 -185 -44 -255 -63 -350 -92 -135 -41 -343 -110 -440
-147 -44 -16 -109 -41 -145 -54 -36 -14 -79 -32 -97 -41 -18 -9 -37 -17 -44
-17 -11 0 -167 -67 -210 -90 -9 -4 -54 -28 -100 -53 -198 -104 -296 -159 -399
-222 -30 -19 -76 -45 -101 -59 -25 -13 -51 -32 -58 -40 -8 -9 -19 -16 -25 -16
-6 0 -39 -19 -73 -43 -33 -23 -103 -71 -155 -106 -51 -35 -95 -67 -98 -70 -5
-7 -148 -116 -184 -141 -103 -71 -510 -444 -664 -607 -153 -163 -414 -471
-482 -569 -8 -12 -33 -46 -56 -75 -22 -30 -65 -90 -95 -134 -31 -44 -76 -109
-100 -145 -71 -102 -263 -420 -306 -505 -11 -22 -54 -110 -96 -195 -43 -85
-85 -168 -94 -185 -8 -16 -26 -55 -38 -85 -13 -30 -40 -93 -60 -140 -100 -229
-148 -355 -185 -480 -109 -368 -141 -486 -167 -620 -8 -41 -26 -122 -39 -180
-13 -58 -26 -132 -30 -165 -3 -33 -17 -112 -30 -175 -12 -63 -28 -187 -34
-275 -6 -88 -15 -209 -20 -270 -5 -60 -12 -188 -14 -283 -7 -220 -13 -212 144
-212 146 0 150 3 150 138 0 140 18 384 35 477 8 44 19 148 25 230 5 83 16 175
25 205 8 30 19 98 25 150 6 52 17 122 24 155 8 33 25 112 39 175 14 63 31 129
37 145 6 17 20 68 30 115 10 47 27 112 38 145 11 33 27 83 35 110 9 28 30 88
47 135 17 47 42 117 54 155 23 70 42 115 97 231 16 34 29 65 29 69 0 18 234
493 267 542 13 19 31 50 42 71 92 182 203 360 359 576 12 17 33 48 47 69 47
70 96 131 230 287 153 179 163 190 340 370 253 259 358 353 562 506 273 205
403 296 582 406 29 18 77 47 105 65 73 45 186 108 285 160 230 119 666 307
836 360 238 73 413 122 475 132 30 5 88 19 129 30 41 11 113 26 160 32 47 6
121 19 163 30 42 10 131 24 197 29 66 5 159 17 208 25 48 8 214 20 368 26 314
12 566 3 825 -30 85 -11 187 -22 225 -26 39 -4 97 -12 130 -20 33 -7 112 -21
176 -29 64 -9 150 -25 190 -35 41 -11 108 -25 149 -31 41 -7 93 -19 115 -27
22 -9 72 -24 110 -34 63 -16 105 -29 240 -74 104 -35 273 -100 363 -141 29
-13 57 -24 62 -24 20 0 474 -223 585 -287 81 -47 184 -109 205 -123 31 -21
184 -120 225 -145 132 -82 516 -386 685 -544 228 -211 479 -484 650 -707 25
-32 63 -81 85 -108 59 -76 88 -115 151 -207 32 -46 72 -104 91 -129 18 -25 44
-66 57 -91 13 -25 32 -51 40 -58 9 -8 16 -18 16 -23 0 -5 26 -53 58 -106 74
-122 81 -136 196 -367 128 -260 176 -362 176 -377 0 -7 10 -29 21 -48 12 -19
29 -57 39 -85 10 -27 27 -72 38 -100 56 -139 65 -165 82 -225 18 -61 35 -116
82 -255 11 -33 28 -94 38 -135 10 -41 28 -106 39 -145 34 -117 65 -259 91
-410 7 -38 18 -106 26 -150 26 -143 74 -739 74 -912 0 -88 3 -115 16 -127 19
-19 22 -20 149 -16 73 1 105 6 118 18 15 13 17 35 17 171 0 189 -25 589 -46
726 -8 55 -22 147 -30 205 -8 58 -28 164 -44 235 -16 72 -32 150 -36 175 -3
25 -15 72 -25 105 -10 33 -21 78 -24 100 -11 68 -115 412 -160 530 -13 33 -30
80 -38 105 -8 25 -31 83 -52 130 -20 47 -45 108 -55 135 -10 28 -37 93 -60
145 -23 52 -52 120 -64 150 -28 69 -192 389 -210 410 -7 8 -34 53 -59 100 -26
47 -75 128 -109 181 -35 53 -85 131 -113 173 -27 43 -67 101 -87 129 -21 29
-47 66 -59 82 -18 27 -117 160 -194 261 -73 97 -326 382 -457 515 -116 119
-303 291 -412 379 -10 8 -49 40 -85 70 -36 31 -138 109 -226 175 -212 159
-215 161 -255 185 -19 12 -62 39 -95 60 -33 22 -80 51 -105 65 -25 14 -70 41
-100 60 -30 19 -71 42 -90 52 -19 9 -42 23 -50 29 -20 16 -99 58 -310 165
-175 88 -281 136 -376 169 -28 10 -68 27 -90 38 -21 11 -55 23 -74 27 -19 4
-52 16 -72 26 -21 11 -61 24 -90 30 -29 6 -70 20 -90 30 -21 11 -66 26 -100
33 -35 8 -90 23 -123 34 -71 23 -157 46 -280 74 -49 11 -118 29 -152 40 -34
10 -104 24 -155 29 -51 6 -134 19 -184 29 -51 11 -161 24 -245 30 -85 6 -210
18 -279 26 -144 17 -636 26 -785 14z"/>
<path d="M11255 19060 c-44 -5 -129 -16 -190 -24 -60 -8 -146 -18 -190 -21
-44 -4 -111 -15 -150 -26 -38 -10 -112 -23 -163 -29 -52 -6 -119 -19 -150 -29
-32 -11 -82 -24 -114 -30 -31 -5 -74 -18 -95 -27 -21 -9 -69 -25 -108 -35 -77
-20 -174 -51 -250 -81 -27 -11 -68 -27 -90 -34 -22 -8 -61 -26 -86 -39 -26
-14 -52 -25 -59 -25 -7 0 -43 -14 -79 -31 -36 -18 -95 -45 -131 -62 -36 -16
-76 -36 -90 -43 -14 -8 -41 -21 -60 -29 -19 -8 -46 -22 -60 -30 -14 -8 -47
-26 -75 -39 -27 -14 -76 -40 -107 -58 -31 -18 -71 -41 -90 -52 -18 -10 -64
-39 -101 -65 -38 -25 -86 -57 -107 -71 -92 -60 -189 -128 -243 -170 -32 -25
-69 -52 -81 -60 -27 -18 -178 -145 -296 -248 -211 -185 -486 -489 -686 -757
-173 -233 -192 -260 -227 -314 -12 -19 -39 -60 -59 -90 -21 -31 -42 -66 -47
-78 -6 -12 -24 -41 -41 -64 -16 -23 -30 -46 -30 -50 0 -4 -10 -23 -22 -41 -59
-87 -273 -541 -329 -697 -10 -30 -23 -59 -28 -65 -5 -6 -16 -36 -25 -66 -9
-30 -25 -77 -35 -105 -20 -53 -73 -222 -115 -365 -14 -47 -32 -127 -41 -179
-9 -51 -22 -119 -30 -150 -8 -31 -19 -110 -25 -176 -6 -66 -20 -179 -30 -251
-12 -81 -22 -219 -26 -362 -6 -206 -5 -233 10 -256 15 -23 23 -26 75 -26 42 0
65 5 81 18 21 17 22 26 26 217 5 243 11 332 29 410 8 33 19 117 24 186 6 69
18 145 26 170 9 24 25 98 36 163 11 65 26 131 33 145 8 14 19 53 26 86 6 33
22 94 35 135 14 41 33 102 44 135 10 33 33 98 50 145 18 47 40 110 50 140 10
31 27 73 39 95 23 44 73 151 96 205 8 19 22 46 30 60 9 14 23 41 31 60 9 19
31 62 50 95 19 33 45 83 60 110 25 49 45 84 90 155 12 19 39 64 60 100 36 62
106 169 150 230 11 15 35 50 54 76 19 27 53 72 75 100 23 28 59 75 81 104 22
29 49 63 60 75 115 131 173 193 310 334 88 90 210 206 270 258 104 90 397 315
494 379 230 152 643 377 906 493 84 37 181 73 290 107 190 60 233 74 285 93
30 11 64 20 75 21 11 0 72 13 135 29 63 17 160 37 215 46 55 9 122 22 150 29
89 25 573 49 845 43 294 -7 606 -30 675 -51 28 -9 86 -20 130 -26 77 -11 290
-56 405 -87 172 -45 237 -64 283 -81 29 -11 75 -27 102 -37 93 -32 180 -65
210 -79 17 -8 75 -35 130 -60 221 -100 492 -250 666 -367 13 -9 56 -36 94 -60
72 -45 180 -121 249 -174 104 -80 333 -284 439 -390 86 -86 373 -406 430 -479
76 -97 130 -168 157 -208 234 -346 243 -361 396 -656 24 -46 47 -89 52 -95 5
-7 15 -28 22 -47 7 -19 21 -46 30 -60 10 -14 23 -42 30 -64 7 -21 25 -63 41
-93 16 -30 29 -62 29 -71 0 -8 11 -34 24 -56 13 -23 27 -57 31 -76 4 -19 17
-60 30 -90 30 -71 63 -170 82 -245 8 -33 28 -99 44 -147 16 -47 29 -99 29
-115 0 -16 11 -66 24 -111 14 -45 32 -130 40 -189 8 -59 22 -128 31 -153 9
-26 20 -106 26 -190 15 -227 28 -567 22 -589 -3 -11 0 -35 7 -55 8 -25 20 -37
42 -45 58 -21 129 -10 150 23 13 20 8 328 -7 441 -8 61 -19 178 -25 260 -5 83
-17 178 -25 212 -8 35 -21 118 -30 184 -8 67 -24 152 -35 188 -11 36 -29 100
-39 141 -32 122 -67 239 -105 340 -19 52 -44 122 -55 155 -23 64 -55 140 -102
243 -16 34 -29 68 -29 75 0 13 -15 45 -119 258 -40 81 -83 162 -97 180 -13 18
-24 38 -24 45 0 6 -13 28 -30 49 -16 21 -30 42 -30 47 0 4 -15 30 -32 57 -18
27 -46 72 -63 101 -16 29 -39 64 -51 78 -12 15 -29 41 -38 57 -20 36 -37 59
-136 188 -41 54 -84 110 -95 125 -111 150 -254 312 -434 492 -227 227 -304
293 -590 507 -226 169 -275 203 -410 283 -23 14 -59 36 -79 49 -20 13 -55 32
-77 43 -22 10 -51 25 -65 33 -14 8 -41 22 -60 30 -19 8 -46 22 -60 30 -14 8
-61 30 -105 50 -44 20 -101 47 -126 61 -26 13 -55 24 -65 24 -11 0 -44 13 -74
30 -30 16 -64 29 -74 30 -11 0 -49 13 -85 28 -85 37 -177 69 -270 94 -41 10
-86 25 -100 33 -14 7 -61 20 -105 29 -43 9 -99 23 -125 32 -25 9 -84 20 -131
24 -47 5 -111 18 -142 29 -36 12 -109 23 -201 30 -79 6 -181 18 -228 27 -63
12 -164 17 -409 19 -179 2 -361 0 -405 -5z"/>
<path d="M11325 17663 c-22 -2 -121 -10 -220 -18 -389 -33 -786 -131 -1195
-295 -57 -23 -313 -147 -365 -177 -125 -73 -241 -145 -304 -187 -40 -28 -103
-71 -140 -96 -100 -68 -137 -97 -241 -186 -195 -167 -405 -375 -505 -499 -22
-28 -74 -91 -115 -141 -41 -50 -93 -117 -115 -148 -22 -32 -51 -73 -65 -91
-24 -32 -42 -60 -86 -134 -63 -106 -99 -170 -116 -206 -10 -22 -24 -49 -30
-60 -21 -37 -27 -49 -93 -188 -36 -75 -65 -142 -65 -148 0 -5 -8 -24 -17 -42
-22 -42 -69 -172 -98 -272 -12 -44 -30 -100 -39 -125 -41 -120 -69 -224 -86
-320 -11 -58 -26 -136 -34 -175 -8 -38 -23 -155 -32 -260 -17 -180 -18 -558
-19 -7042 l0 -6853 130 0 130 0 0 6847 c0 7266 -1 7046 45 7253 11 47 26 128
34 180 9 53 22 116 31 140 9 25 23 79 32 120 8 41 20 83 25 94 5 10 19 50 29
88 11 38 26 79 33 91 8 12 20 42 26 67 7 24 23 66 36 92 13 26 24 53 24 59 0
38 258 511 343 629 10 14 37 54 60 90 125 194 332 431 532 609 106 95 297 253
380 316 47 35 238 162 286 190 247 142 429 231 584 285 140 49 168 58 270 88
55 17 132 39 171 51 39 12 127 32 195 46 68 14 153 31 189 39 36 8 128 19 205
25 77 6 174 15 216 20 70 9 130 4 158 -13 16 -10 14 -34 -10 -95 -19 -52 -20
-57 -4 -98 9 -24 14 -50 11 -58 -3 -8 -23 -23 -44 -34 -58 -29 -62 -71 -13
-140 10 -14 24 -52 31 -83 15 -65 6 -100 -36 -139 -29 -27 -32 -74 -6 -103 10
-12 26 -47 36 -79 17 -58 17 -58 -13 -124 -17 -36 -31 -73 -31 -83 0 -9 11
-28 23 -42 35 -38 43 -148 16 -225 -25 -73 -24 -97 6 -161 14 -30 25 -62 25
-73 0 -10 -13 -33 -29 -51 -39 -46 -44 -68 -22 -108 10 -19 24 -58 30 -87 12
-50 12 -53 -23 -120 -20 -38 -36 -76 -36 -84 0 -8 14 -34 31 -59 28 -41 30
-50 25 -100 -3 -30 -12 -84 -21 -120 -31 -125 -30 -134 4 -194 17 -31 28 -62
25 -71 -4 -9 -21 -26 -39 -38 -17 -12 -50 -43 -73 -70 -38 -43 -46 -65 -54
-136 -4 -34 -44 -59 -113 -70 -179 -30 -243 -43 -268 -53 -78 -30 -104 -131
-68 -261 12 -42 19 -86 16 -99 -2 -13 -12 -117 -20 -233 -16 -215 -30 -335
-91 -770 -40 -289 -78 -522 -106 -650 -11 -49 -24 -108 -29 -130 -4 -22 -8
-58 -9 -80 0 -22 -9 -59 -20 -82 -16 -36 -20 -77 -26 -293 -5 -181 -4 -250 4
-250 11 0 35 69 47 133 3 18 14 132 24 255 16 201 20 226 39 245 27 26 27 28
47 -148 11 -101 16 -241 17 -502 0 -198 -3 -366 -6 -372 -10 -16 -208 -15
-224 1 -18 18 -15 30 19 82 26 39 31 54 26 87 -3 22 -8 44 -12 47 -3 4 -21 -2
-38 -12 -18 -11 -53 -29 -78 -42 -56 -27 -74 -64 -66 -129 6 -39 4 -47 -16
-59 -12 -8 -48 -18 -80 -21 -81 -10 -89 -1 -81 89 6 65 4 77 -20 124 -22 43
-24 55 -15 79 7 18 10 101 8 223 -2 168 0 200 15 234 15 33 17 59 13 153 -6
127 -17 153 -68 153 -49 0 -59 -29 -59 -166 0 -109 3 -127 26 -178 15 -33 22
-61 17 -68 -8 -13 -26 -415 -24 -549 0 -86 -13 -100 -107 -107 -66 -4 -69 -3
-91 24 -19 24 -21 36 -16 79 5 36 2 71 -10 114 -15 51 -16 69 -6 100 6 21 11
91 11 155 0 149 -20 195 -53 124 -11 -25 -14 -69 -13 -183 1 -101 -2 -157 -10
-170 -14 -23 -44 -152 -44 -187 0 -15 -16 -39 -42 -65 -57 -53 -74 -58 -94
-28 -13 19 -16 70 -20 287 -3 145 -10 284 -16 310 -9 42 -7 52 12 83 20 32 21
46 18 154 -2 100 -6 122 -22 140 -21 23 -68 28 -84 8 -16 -19 -13 -242 4 -305
8 -29 13 -61 10 -70 -3 -10 -8 -125 -11 -257 -8 -334 -9 -342 -36 -371 -28
-30 -58 -31 -93 -3 -21 17 -26 27 -20 43 4 11 10 154 14 316 4 162 11 313 16
334 11 49 1 205 -16 246 -10 25 -18 30 -46 30 -46 0 -57 -29 -45 -118 5 -37 9
-87 10 -112 4 -460 11 -687 21 -710 21 -51 -23 -94 -83 -83 -41 8 -52 27 -40
71 6 21 9 146 8 292 -2 206 1 262 13 293 15 39 13 96 -6 186 -13 59 -39 75
-77 47 -21 -15 -21 -8 -10 -529 4 -226 9 -295 20 -317 14 -27 13 -31 -10 -58
-20 -24 -38 -32 -90 -41 -88 -16 -209 -74 -225 -109 -18 -39 -24 -150 -11
-199 7 -24 23 -55 37 -70 18 -19 23 -33 18 -48 -6 -16 -23 -438 -25 -594 0
-39 27 -73 55 -69 12 2 27 16 35 33 13 26 12 37 -4 90 -20 67 -23 150 -11 357
6 96 5 152 -3 183 -14 56 -2 112 34 152 34 40 51 20 47 -55 -2 -32 2 -78 9
-102 6 -25 14 -98 18 -162 3 -64 10 -120 14 -124 18 -19 27 28 26 136 -1 63 3
142 8 175 7 41 7 80 0 123 -9 54 -8 65 6 80 16 15 19 14 47 -6 30 -22 30 -22
56 8 30 33 71 40 81 14 3 -9 -1 -46 -10 -83 -12 -48 -17 -109 -16 -226 0 -88
-4 -191 -10 -230 -27 -173 -26 -182 30 -171 19 3 40 10 46 14 9 6 14 53 18
151 3 78 10 184 16 234 5 51 11 137 11 192 1 116 14 155 64 185 27 17 37 19
54 10 22 -12 22 -12 19 -448 -2 -417 -1 -439 18 -487 18 -45 38 -218 35 -305
-1 -14 -3 -134 -6 -268 -5 -220 -8 -246 -27 -283 -21 -42 -20 -86 4 -101 20
-12 82 29 100 67 11 23 28 40 46 46 39 14 86 115 76 165 -8 47 -34 44 -63 -6
-24 -43 -28 -45 -52 -30 -12 7 -16 39 -18 152 -2 79 -3 208 -2 288 1 82 -3
157 -9 173 -8 22 -6 38 10 80 17 43 20 66 15 132 -3 44 -2 250 2 458 7 363 8
379 27 393 12 9 37 14 65 12 36 -2 47 -8 57 -28 10 -19 13 -134 13 -478 0
-280 4 -460 10 -472 13 -24 63 -35 91 -20 21 12 22 16 15 104 -3 50 -3 268 1
485 6 377 7 394 27 412 24 23 107 26 129 5 15 -15 18 -95 33 -857 7 -322 12
-360 46 -346 8 2 26 28 42 57 23 43 30 69 34 139 2 48 0 138 -6 201 -9 88 -8
184 3 409 10 220 11 307 2 346 -13 63 -1 85 45 85 17 0 52 8 78 17 76 27 77
25 81 -200 8 -383 4 -721 -9 -820 -12 -88 -12 -101 3 -123 9 -14 32 -32 50
-41 19 -9 35 -20 35 -24 0 -11 -60 -59 -74 -59 -8 0 -34 9 -60 20 -44 20 -47
20 -77 3 -85 -49 -95 -53 -123 -47 -15 3 -47 1 -70 -4 -22 -6 -58 -14 -79 -17
-28 -4 -49 -18 -80 -51 -48 -52 -92 -78 -114 -70 -12 5 -14 16 -8 54 8 58 8
68 -1 159 -8 82 -26 111 -50 78 -8 -11 -12 -31 -9 -45 2 -14 7 -105 10 -203 5
-195 8 -217 38 -265 17 -30 20 -52 20 -185 0 -84 -3 -178 -8 -209 -6 -42 -4
-62 5 -73 18 -22 57 -18 74 7 19 27 20 57 5 108 -9 29 -8 66 5 163 9 70 16
176 16 235 0 93 3 113 20 134 25 32 101 55 134 40 23 -10 23 -10 24 -680 0
-369 3 -676 7 -681 10 -16 61 -13 75 5 9 9 12 34 10 67 -5 56 -6 832 -2 1087
1 85 2 166 1 179 -1 32 33 64 70 64 17 0 46 -8 64 -17 32 -18 33 -18 71 8 43
29 64 32 88 13 14 -11 14 -56 7 -427 -9 -439 -1 -682 27 -775 12 -38 15 -99
14 -256 -1 -171 2 -208 14 -218 22 -18 49 -10 61 19 7 16 9 91 5 205 -4 128
-2 195 8 232 11 44 10 58 -4 100 -15 42 -17 111 -17 582 0 493 2 534 17 543
10 5 54 10 99 11 82 2 82 2 82 -89 0 -98 -7 -114 -54 -137 -29 -14 -41 -55
-19 -68 7 -5 25 -9 40 -9 22 0 29 -6 34 -27 4 -14 3 -121 -1 -237 -16 -383
-15 -564 2 -640 12 -54 13 -79 5 -120 -11 -50 -26 -166 -36 -276 -3 -30 -7
-147 -8 -259 -2 -191 -1 -204 17 -218 13 -9 29 -11 45 -7 14 4 39 8 55 8 23 1
30 6 30 21 0 13 -8 21 -22 23 -28 4 -38 37 -28 90 8 48 8 47 1 369 -6 272 -6
272 33 304 49 39 65 77 57 132 -3 23 -8 215 -11 427 -4 276 -2 398 6 430 10
39 9 51 -5 79 -12 21 -19 65 -22 132 -4 99 -4 99 50 93 32 -4 68 -2 90 6 31
10 41 9 62 -4 24 -16 24 -19 18 -99 -3 -45 -13 -106 -21 -135 -13 -42 -14 -60
-4 -91 7 -26 11 -170 11 -454 0 -415 0 -415 42 -450 39 -32 43 -40 50 -99 20
-169 26 -336 16 -424 -10 -79 -9 -102 7 -175 16 -72 19 -138 21 -456 1 -205 5
-377 9 -383 9 -14 51 -13 62 3 7 7 13 211 16 526 5 433 3 519 -8 542 -10 19
-16 79 -20 201 -5 160 -16 240 -48 353 -7 27 -12 203 -14 535 -1 272 -5 517
-9 544 -5 37 -3 52 10 64 14 14 24 15 70 5 36 -8 67 -8 96 -2 33 8 48 6 65 -5
21 -14 24 -25 29 -128 3 -62 9 -280 12 -484 5 -320 4 -380 -10 -433 -18 -71
-20 -105 -7 -129 7 -14 12 -288 9 -557 0 -27 3 -65 7 -83 6 -29 3 -38 -22 -65
-41 -43 -45 -59 -28 -114 8 -27 15 -79 15 -118 0 -38 7 -124 16 -190 11 -85
16 -216 17 -452 2 -293 4 -334 18 -349 20 -19 54 -11 69 16 6 12 12 159 14
372 3 272 8 381 22 473 23 154 23 314 1 374 -15 37 -17 88 -17 349 0 205 4
318 12 344 9 31 9 47 -1 75 -10 27 -13 118 -11 382 2 190 4 426 4 523 1 150 4
180 18 194 12 13 38 17 111 17 62 1 100 -3 110 -11 12 -10 15 -92 22 -536 5
-383 4 -533 -4 -559 -7 -19 -25 -46 -40 -60 -26 -23 -30 -33 -35 -109 -19
-280 -22 -582 -13 -1127 5 -292 10 -387 19 -393 19 -12 46 -10 55 5 4 6 6 100
5 207 -4 258 14 592 35 647 10 28 13 55 8 80 -10 58 -23 617 -14 627 12 13 51
-1 82 -30 26 -24 28 -31 22 -73 -3 -25 -1 -71 5 -101 6 -30 13 -100 16 -155 2
-55 10 -114 16 -131 9 -25 7 -40 -7 -77 -16 -42 -16 -50 -2 -94 11 -35 17
-123 23 -323 4 -151 6 -300 5 -331 -1 -42 3 -62 17 -79 16 -19 22 -21 40 -11
24 13 38 53 25 73 -4 7 -8 164 -9 348 -1 336 -1 336 -32 394 -26 49 -30 66
-25 105 7 58 -13 285 -33 369 -7 35 -14 82 -14 105 0 23 -7 65 -16 92 -13 42
-15 118 -13 490 1 318 -2 467 -11 538 -12 89 -12 99 3 115 15 15 21 15 50 2
19 -8 58 -13 96 -12 35 1 70 -3 77 -9 16 -14 18 -150 2 -191 -10 -26 -60 -58
-92 -58 -10 0 -16 -9 -16 -25 0 -17 9 -29 30 -40 46 -24 61 -55 60 -122 -4
-162 10 -574 19 -592 17 -30 14 -39 -24 -77 -44 -44 -45 -75 -4 -122 27 -31
30 -40 25 -76 -7 -44 20 -621 30 -662 4 -14 1 -45 -6 -70 -10 -33 -10 -51 -2
-69 16 -35 57 -43 90 -18 27 20 27 21 28 164 1 98 -2 152 -11 169 -20 40 -41
523 -25 575 5 17 11 291 14 609 6 655 1 617 80 597 25 -6 61 -11 80 -11 53 0
65 -19 60 -92 -5 -61 -28 -128 -45 -128 -5 0 -13 -9 -19 -20 -8 -16 -4 -26 22
-56 31 -35 33 -42 34 -118 0 -45 2 -223 3 -396 3 -303 3 -317 -17 -355 -18
-35 -20 -45 -10 -80 14 -50 15 -114 5 -282 -8 -133 -8 -133 18 -145 21 -9 29
-9 41 4 18 17 19 33 14 224 -3 139 -2 141 25 182 21 31 27 52 25 82 -9 150 8
1089 21 1127 14 42 41 50 85 24 42 -25 60 -26 107 -6 45 18 58 19 82 1 17 -12
18 -41 20 -572 2 -454 0 -564 -11 -586 -11 -20 -12 -53 -7 -132 3 -57 9 -110
13 -117 12 -18 62 -14 77 7 11 15 13 39 6 114 -12 137 -2 1207 11 1228 13 21
68 13 116 -18 56 -36 75 -67 66 -109 -3 -17 -9 -45 -12 -61 -4 -21 1 -47 16
-83 22 -49 23 -61 17 -213 -6 -147 -5 -163 12 -178 22 -20 35 -20 52 1 11 12
13 49 11 159 -3 120 -1 146 13 168 16 24 16 28 0 71 -15 37 -16 62 -11 138 5
71 3 102 -9 136 -12 36 -13 51 -4 80 16 47 6 223 -16 281 -16 40 -18 99 -20
525 -3 581 -8 555 101 509 18 -8 38 -23 44 -34 13 -25 19 -817 6 -906 -8 -56
-6 -64 13 -83 28 -28 74 -27 98 2 17 22 18 51 16 468 -1 244 -4 462 -5 484 -3
35 0 40 20 43 29 4 128 -43 136 -64 3 -8 -1 -28 -9 -45 -19 -35 -19 -48 -7
-329 6 -141 6 -259 0 -315 -5 -49 -9 -144 -9 -210 0 -66 -1 -142 -2 -169 -1
-37 2 -51 15 -60 13 -8 23 -6 45 10 41 31 52 58 41 103 -6 24 -6 80 0 152 5
63 5 155 1 204 -10 114 -3 412 12 485 8 41 8 67 0 96 -16 58 -14 82 9 89 33
11 61 -5 77 -43 13 -30 14 -91 12 -384 -3 -248 -1 -350 7 -358 19 -19 58 -7
71 21 10 20 10 40 2 85 -8 40 -9 124 -3 264 4 113 7 231 5 262 -2 63 11 98 37
98 21 0 102 -79 102 -99 0 -7 -12 -22 -26 -33 -25 -20 -25 -22 -18 -106 6 -83
7 -102 12 -221 2 -47 4 -52 17 -41 13 11 16 33 14 107 -2 56 2 98 8 104 7 7
13 7 17 1 8 -13 11 -136 4 -148 -3 -5 0 -38 8 -74 19 -88 18 -164 -1 -180 -20
-17 -26 -10 -40 47 -14 56 -30 65 -39 22 -15 -79 1 -130 34 -109 24 16 28 12
42 -37 24 -86 99 -100 106 -20 2 20 -1 44 -6 54 -6 11 -6 84 1 191 10 190 3
264 -33 309 -11 14 -20 29 -20 33 0 5 13 13 29 18 52 18 66 54 66 163 0 95 -1
99 -30 129 -36 37 -165 100 -207 100 -31 0 -94 25 -104 42 -12 19 -6 587 7
643 9 43 10 64 0 94 -6 23 -9 62 -5 93 7 62 -5 101 -40 123 -37 24 -63 6 -71
-50 -4 -24 -1 -212 6 -417 7 -205 13 -393 13 -418 1 -45 1 -45 -36 -48 -29 -2
-43 3 -73 29 -34 30 -39 32 -69 21 -46 -17 -90 -15 -115 6 -36 29 -53 134 -63
397 -6 132 -9 263 -7 290 1 28 3 105 3 171 1 107 -1 125 -18 143 -25 28 -62
27 -80 -1 -8 -14 -16 -66 -20 -132 -7 -106 -6 -110 20 -147 21 -31 25 -44 19
-66 -9 -32 -12 -176 -6 -403 4 -194 5 -186 -19 -210 -28 -28 -63 -25 -100 10
-29 27 -32 35 -26 69 8 51 -18 84 -85 106 -51 17 -51 17 -44 59 8 46 7 354 -1
402 -4 22 2 46 19 80 21 41 26 68 31 170 5 109 4 123 -12 138 -26 22 -49 20
-76 -7 -21 -21 -25 -37 -31 -128 -6 -90 -4 -111 13 -162 15 -41 18 -65 12 -87
-5 -16 -10 -115 -11 -219 -3 -185 -3 -191 19 -214 14 -14 22 -36 22 -56 0 -19
5 -51 11 -72 17 -55 2 -69 -72 -69 -79 0 -93 15 -85 90 11 96 -22 147 -76 119
-66 -34 -70 -59 -36 -194 16 -64 19 -88 10 -97 -8 -8 -13 -6 -17 8 -17 52 -28
66 -60 80 -22 9 -49 12 -73 8 -47 -7 -58 5 -77 78 -7 29 -32 97 -54 151 -69
161 -95 309 -92 520 1 43 -5 104 -13 135 -8 31 -15 89 -14 128 0 57 -5 81 -26
123 -15 28 -29 72 -32 99 -4 26 -17 83 -30 127 -12 44 -28 130 -33 192 -6 62
-19 148 -31 192 -11 44 -25 133 -30 198 -6 65 -19 156 -31 203 -13 55 -23 147
-29 259 -5 95 -16 219 -24 275 -37 241 -37 245 -14 290 14 28 23 67 26 120 6
93 -9 130 -67 170 -35 25 -83 34 -308 62 -47 6 -56 17 -67 79 -10 52 -69 158
-119 213 -31 35 -38 49 -33 70 18 81 30 151 29 178 -1 17 -13 55 -28 84 -24
47 -25 56 -16 101 6 28 22 67 36 87 31 46 32 74 2 106 -20 22 -25 40 -31 118
-6 92 -6 92 24 116 35 28 38 50 9 86 -30 38 -35 96 -14 166 17 55 17 61 1 84
-10 16 -16 46 -16 80 0 30 -5 67 -11 82 -9 24 -6 37 21 88 30 59 30 59 9 100
-16 31 -22 62 -24 131 -3 90 -3 90 31 128 19 20 34 41 34 46 0 5 -12 24 -27
41 -24 29 -27 40 -29 128 -2 80 1 101 16 122 10 15 22 39 26 54 5 23 0 33 -36
67 -43 41 -43 41 -27 93 22 68 21 88 -3 136 -11 22 -20 46 -20 54 0 27 58 36
155 26 50 -5 144 -15 210 -21 154 -13 214 -21 355 -48 269 -51 427 -97 710
-206 52 -20 111 -43 130 -50 167 -64 496 -242 655 -355 219 -156 349 -265 549
-460 208 -203 347 -375 515 -635 31 -49 71 -110 87 -135 33 -51 41 -66 153
-284 44 -88 81 -166 81 -174 0 -8 9 -31 20 -51 34 -61 135 -366 159 -481 6
-25 17 -65 26 -90 9 -25 25 -94 35 -155 11 -60 28 -159 39 -220 11 -60 27
-215 36 -343 13 -194 16 -411 14 -1300 0 -587 0 -3620 0 -6739 l1 -5673 130 0
129 0 -2 6853 c-3 6334 -4 6860 -19 6962 -10 61 -22 166 -28 235 -6 69 -20
154 -30 190 -10 36 -22 97 -25 135 -4 39 -14 86 -22 105 -8 19 -25 78 -38 130
-32 125 -93 306 -143 420 -8 19 -25 62 -37 95 -55 147 -161 365 -220 450 -14
21 -25 42 -25 47 0 5 -13 28 -29 51 -15 23 -49 74 -74 112 -26 39 -60 88 -77
110 -16 22 -38 51 -47 65 -63 91 -294 362 -412 484 -170 175 -391 360 -606
506 -16 11 -46 32 -65 45 -19 13 -55 36 -80 50 -25 14 -74 44 -110 66 -81 51
-275 156 -303 165 -12 3 -45 19 -73 35 -28 16 -58 29 -66 29 -7 0 -32 9 -53
21 -65 34 -264 100 -435 145 -36 9 -110 29 -165 44 -193 53 -349 80 -582 100
-211 18 -544 25 -678 13z m297 -2950 c8 -10 27 -48 42 -84 24 -58 32 -68 67
-82 36 -14 39 -18 39 -55 0 -51 -24 -72 -76 -70 -22 0 -49 -4 -61 -10 -27 -15
-68 -15 -94 -2 -13 8 -19 21 -19 46 0 28 7 42 35 67 35 31 35 31 35 119 0 48
4 88 8 88 5 0 16 -8 24 -17z m-138 -49 c13 -33 6 -64 -18 -79 -19 -13 -29 -14
-45 -5 -27 14 -27 40 0 74 23 29 54 34 63 10z m404 -337 c18 -19 21 -31 16
-72 -5 -41 -1 -58 19 -96 25 -46 25 -48 20 -235 -3 -112 -1 -228 6 -284 6 -52
20 -183 31 -290 12 -107 25 -222 30 -255 5 -33 16 -136 25 -230 9 -93 24 -231
34 -305 11 -74 27 -207 36 -295 11 -102 26 -185 41 -231 13 -39 24 -93 24
-120 1 -115 40 -266 61 -232 28 44 -12 553 -49 626 -5 9 -12 42 -15 72 -3 30
-15 114 -26 185 -10 72 -24 186 -30 255 -7 69 -16 154 -21 190 -21 138 -31
262 -60 715 -5 88 -19 212 -29 275 -14 82 -16 120 -9 134 6 10 8 42 4 70 -3
28 -7 62 -8 76 -3 20 2 26 23 28 20 2 32 -4 47 -25 46 -65 55 -96 57 -193 4
-125 24 -450 29 -475 7 -27 41 -304 61 -485 9 -80 24 -181 35 -225 10 -44 28
-147 40 -230 12 -82 29 -170 37 -195 9 -25 15 -63 15 -85 -10 -371 -13 -336
32 -377 40 -37 40 -37 29 -80 -20 -76 -4 -163 77 -408 73 -224 75 -230 63
-248 -13 -21 -168 -39 -189 -22 -8 8 -11 27 -7 63 9 89 -44 247 -83 247 -21 0
-35 -44 -45 -143 -5 -48 -13 -105 -19 -126 -9 -33 -17 -42 -61 -60 -28 -12
-63 -21 -77 -19 -24 3 -28 9 -39 58 -6 30 -12 84 -12 120 -1 36 -6 97 -11 135
-5 39 -14 135 -20 215 -11 160 -15 180 -35 180 -19 0 -23 -17 -35 -180 -6 -80
-15 -181 -20 -225 -12 -93 -13 -255 -2 -271 4 -5 24 -23 45 -38 20 -16 37 -34
37 -42 0 -19 -37 -36 -60 -29 -26 8 -60 53 -60 78 0 29 -29 57 -59 57 -14 0
-45 -10 -68 -22 -40 -21 -43 -21 -61 -5 -17 16 -20 41 -28 330 -5 171 -9 411
-9 532 0 179 -3 224 -15 243 -19 29 -47 37 -74 22 -38 -20 -50 -51 -54 -143
-3 -68 0 -98 13 -134 16 -42 17 -67 10 -247 -5 -111 -9 -286 -10 -389 -1 -151
-5 -191 -16 -198 -8 -5 -19 -7 -26 -4 -48 17 -84 16 -117 -5 -20 -12 -46 -20
-58 -18 -21 3 -23 8 -20 56 1 29 -6 114 -18 187 -11 73 -20 180 -20 237 0 57
-5 145 -10 196 -10 92 -9 95 20 161 27 61 29 74 23 141 -5 59 -11 79 -29 97
-29 29 -65 29 -90 2 -15 -17 -19 -34 -17 -92 1 -40 10 -109 19 -154 14 -75 15
-105 3 -301 -7 -119 -13 -288 -13 -374 0 -177 0 -175 -71 -141 -35 17 -37 16
-79 -7 -26 -14 -50 -20 -61 -16 -15 5 -16 14 -11 59 6 42 2 69 -18 129 -28 86
-33 165 -21 315 5 72 4 120 -5 161 -11 56 -11 61 14 110 31 62 33 99 6 175
-11 31 -20 65 -20 75 0 9 -7 28 -16 40 -12 17 -25 22 -58 22 -23 0 -45 2 -48
5 -6 6 0 44 42 255 17 85 41 227 55 315 13 88 30 197 39 242 8 45 18 121 21
170 4 48 20 194 36 323 15 129 33 305 39 390 13 184 22 222 57 249 44 36 50
29 55 -61 7 -123 -18 -618 -41 -818 -11 -96 -30 -303 -41 -460 -11 -157 -27
-331 -35 -386 -8 -56 -15 -115 -15 -131 0 -31 24 -73 35 -61 13 13 43 156 59
278 9 69 21 195 26 280 6 85 22 232 36 325 24 159 31 266 48 771 3 88 9 119
25 150 30 56 27 90 -11 125 -21 21 -28 33 -21 40 16 16 88 22 112 10 18 -10
21 -20 21 -78 0 -36 5 -117 12 -179 9 -93 9 -150 -5 -336 -9 -122 -20 -403
-24 -623 -11 -681 -11 -695 22 -695 8 0 15 3 15 8 0 4 7 52 15 107 10 65 15
185 15 340 0 152 6 286 15 365 9 72 18 246 20 410 3 157 8 368 11 469 6 161 9
186 25 202 27 27 65 24 84 -5 13 -19 15 -40 10 -93 -10 -121 -13 -1326 -2
-1356 7 -20 5 -44 -6 -85 -13 -45 -14 -79 -8 -162 11 -137 40 -196 93 -188 15
2 29 16 40 38 15 30 17 53 12 160 -3 69 -10 142 -15 163 -7 24 -6 51 1 76 10
37 13 584 7 1193 -2 235 -2 238 21 260 21 21 24 22 50 8 26 -15 27 -20 35
-120 4 -58 9 -253 11 -435 2 -216 9 -381 20 -478 11 -108 16 -234 15 -460 -1
-328 7 -425 42 -485 14 -25 19 -53 19 -110 0 -77 0 -77 59 -140 65 -70 87 -76
110 -28 11 24 11 39 2 78 -6 27 -11 75 -11 107 0 31 -5 62 -11 68 -6 6 -29 8
-53 6 -30 -4 -45 -1 -55 11 -15 18 -26 262 -40 891 -5 209 -14 487 -22 617
-11 196 -11 246 0 289 9 34 11 74 7 120 -4 38 -4 73 -1 79 11 18 61 11 83 -13z
m352 -3127 c0 -5 -7 -10 -15 -10 -8 0 -15 5 -15 10 0 6 7 10 15 10 8 0 15 -4
15 -10z m-2360 -70 c25 -25 25 -41 3 -69 -24 -29 -132 -41 -152 -18 -7 9 -11
24 -9 34 3 17 98 73 124 73 8 0 23 -9 34 -20z m3419 -14 c27 -29 26 -79 -2
-84 -30 -6 -78 19 -88 45 -22 58 45 87 90 39z m195 -2 c21 -8 22 -72 1 -80
-27 -11 -65 6 -77 32 -11 22 -9 28 7 40 20 15 44 18 69 8z m-3854 -38 c0 -22
-29 -41 -42 -28 -8 8 -8 15 2 27 16 19 40 20 40 1z m1466 -8 c4 -6 7 -274 8
-597 1 -322 6 -600 10 -618 7 -29 5 -34 -16 -44 -18 -7 -36 -8 -62 -1 -28 8
-47 7 -81 -5 -51 -17 -75 -44 -75 -85 0 -31 -11 -36 -30 -13 -13 16 -11 36 14
103 16 44 19 112 18 507 0 151 4 199 24 300 13 66 24 145 24 175 0 61 -18 138
-43 187 -10 18 -17 44 -17 58 0 25 2 25 58 24 32 -1 71 5 91 13 34 16 66 14
77 -4z m356 -9 c34 -18 42 -75 38 -264 -5 -195 -4 -224 5 -510 5 -142 4 -204
-6 -245 -7 -30 -13 -93 -14 -140 0 -85 0 -85 -75 -87 -41 0 -95 -4 -118 -8
-25 -4 -48 -3 -53 2 -11 11 -19 315 -19 708 0 346 8 513 27 543 14 23 17 24
106 17 51 -4 100 -11 109 -16z m391 12 c4 0 14 -16 22 -33 10 -27 12 -130 8
-553 -3 -286 -5 -557 -4 -602 2 -74 0 -82 -18 -88 -13 -4 -35 3 -60 17 -37 21
-43 22 -73 9 -18 -8 -49 -14 -68 -15 -35 -1 -35 -1 -43 89 -4 50 -10 328 -12
618 -4 501 -3 529 14 546 16 16 33 18 122 16 57 -1 108 -3 112 -4z m301 -23
c31 -32 33 -39 46 -158 9 -85 14 -273 14 -590 1 -430 0 -466 -16 -482 -19 -19
-37 -21 -78 -9 -15 5 -42 1 -67 -8 -34 -12 -45 -13 -55 -3 -19 19 -19 1161 0
1214 27 75 100 92 156 36z m-1431 -3 c18 -18 25 -180 31 -710 3 -219 9 -384
15 -405 15 -46 14 -103 -1 -118 -16 -16 -193 -16 -237 -1 -29 10 -32 15 -25
38 17 65 21 106 13 135 -5 17 -12 162 -15 321 -6 299 6 639 25 688 8 22 17 27
43 28 18 0 53 9 78 19 55 23 55 23 73 5z m1722 -6 c33 -5 65 -15 72 -22 13
-13 25 -403 24 -807 0 -211 3 -271 25 -376 4 -21 1 -34 -11 -44 -14 -12 -24
-11 -72 5 -53 18 -57 18 -104 2 -27 -10 -53 -16 -57 -13 -11 7 -12 237 -1 257
4 9 24 20 43 23 57 11 58 76 2 76 -53 1 -64 35 -60 195 2 66 5 251 8 411 2
161 7 297 11 304 4 7 18 9 34 5 14 -3 53 -10 86 -16z m301 -36 c20 -22 24 -33
18 -53 -5 -14 -8 -113 -9 -220 0 -193 8 -271 24 -240 17 31 32 119 40 235 8
107 7 126 -10 175 -18 52 -18 56 -2 68 9 6 24 12 34 12 38 0 42 -23 45 -258 2
-125 6 -303 8 -397 4 -139 2 -179 -11 -223 -14 -45 -15 -61 -5 -110 7 -32 12
-74 12 -93 0 -25 8 -43 25 -59 27 -25 32 -59 13 -78 -17 -17 -64 -15 -94 5
-22 14 -32 15 -70 5 -89 -24 -105 -11 -102 84 1 33 -4 127 -10 209 -6 83 -11
323 -11 535 0 319 3 389 15 408 20 30 59 28 90 -5z m375 -22 c22 -18 24 -25
24 -157 1 -77 6 -265 13 -418 9 -238 8 -284 -4 -307 -22 -44 -17 -84 15 -121
47 -55 51 -69 42 -143 -6 -51 -4 -77 7 -109 17 -47 12 -76 -14 -76 -28 0 -163
71 -179 94 -8 11 -15 38 -15 59 0 20 -7 54 -16 75 -23 56 -28 250 -19 837 2
132 4 244 4 248 1 12 62 36 92 37 15 0 37 -9 50 -19z"/>
<path d="M11777 11953 c-14 -26 -17 -56 -16 -165 1 -88 4 -121 9 -98 14 64 32
235 28 265 -3 30 -3 30 -21 -2z"/>
<path d="M11354 11885 c-11 -25 -12 -299 -1 -339 15 -54 26 -12 32 119 4 95 2
145 -8 185 -12 46 -16 52 -23 35z"/>
<path d="M11352 10967 c-14 -16 -23 -840 -10 -875 13 -36 38 -39 65 -7 22 25
24 34 18 87 -4 32 -8 220 -9 418 -2 279 -5 362 -15 374 -16 19 -35 20 -49 3z"/>
<path d="M11722 10947 c-24 -29 -34 -790 -11 -864 12 -39 37 -50 60 -26 16 17
17 46 7 448 -6 258 -14 435 -20 443 -13 15 -23 15 -36 -1z"/>
<path d="M12080 10850 c-7 -13 -9 -73 -5 -178 7 -169 11 -202 24 -202 16 0 31
61 31 124 0 34 4 77 9 96 5 19 12 58 16 86 6 46 4 54 -16 73 -28 26 -45 27
-59 1z"/>
<path d="M10591 10897 c-9 -23 1 -203 14 -264 15 -67 30 -33 54 115 14 90 14
128 1 153 -15 27 -58 25 -69 -4z"/>
<path d="M10580 9964 c0 -8 5 -12 10 -9 6 4 8 11 5 16 -9 14 -15 11 -15 -7z"/>
<path d="M12373 10934 c-11 -28 3 -288 17 -313 13 -25 13 -25 36 20 17 33 23
61 23 109 0 61 -18 164 -34 189 -9 16 -35 13 -42 -5z"/>
<path d="M4440 13389 c-857 -9 -777 -6 -800 -29 -29 -29 -28 -110 3 -146 23
-26 23 -26 1653 -27 1528 -2 1632 -1 1657 16 32 21 44 74 28 128 -6 21 -21 44
-33 50 -25 14 -1493 18 -2508 8z"/>
<path d="M16217 13376 c-29 -30 -34 -123 -8 -164 4 -7 23 -16 42 -20 30 -6
2986 -5 3197 1 74 2 86 5 103 26 26 32 26 110 0 142 -19 24 -19 24 -1668 27
-1513 4 -1651 3 -1666 -12z"/>
<path d="M4225 12745 c-21 -20 -25 -34 -25 -84 0 -53 3 -62 27 -81 25 -20 35
-21 138 -14 60 3 570 7 1133 8 1001 1 1024 1 1038 20 27 38 14 145 -20 168 -6
4 -519 8 -1139 8 -1128 0 -1128 0 -1152 -25z"/>
<path d="M16850 12760 c-214 -5 -214 -5 -227 -30 -18 -36 -17 -125 3 -144 14
-14 131 -16 1117 -18 606 -1 1118 -1 1137 0 52 3 75 32 74 91 -2 48 -17 89
-38 103 -12 8 -1723 7 -2066 -2z"/>
<path d="M10423 12304 c-14 -23 -19 -53 -21 -154 -4 -120 -2 -130 22 -177 24
-48 25 -57 20 -169 -5 -111 3 -161 22 -141 14 14 23 124 14 158 -15 53 -12
104 11 161 14 36 24 92 29 173 10 141 3 168 -47 173 -25 3 -35 -2 -50 -24z"/>
<path d="M12752 12276 c-15 -20 -20 -48 -25 -147 -7 -121 -7 -123 19 -161 24
-34 26 -43 19 -95 -9 -74 -7 -172 8 -297 11 -94 28 -130 41 -89 9 29 11 323 2
378 -6 40 -3 62 12 101 18 44 20 66 15 175 -3 68 -10 132 -15 142 -13 25 -53
21 -76 -7z"/>
<path d="M4596 12238 c-14 -20 -16 -618 -16 -6130 l0 -6108 135 0 135 0 0 593
c0 325 1 3074 3 6108 2 5413 2 5517 -17 5538 -17 19 -30 21 -122 21 -95 0
-104 -2 -118 -22z"/>
<path d="M6072 12248 c-17 -5 -34 -16 -38 -26 -5 -9 -10 -2759 -12 -6120 l-3
-6102 141 0 141 0 -2 5623 c-2 5984 -4 6577 -24 6604 -9 12 -34 18 -93 22 -45
4 -94 3 -110 -1z"/>
<path d="M16905 12247 c-14 -11 -19 -26 -19 -58 0 -24 1 -2777 2 -6116 l2
-6073 135 0 135 0 2 6068 c2 3337 2 6086 2 6110 -1 67 -17 76 -137 80 -78 3
-107 0 -122 -11z"/>
<path d="M18373 12250 c-12 -5 -25 -19 -28 -32 -4 -17 0 -11605 4 -12115 l1
-103 135 0 135 0 0 6105 c0 6092 0 6105 -20 6125 -16 16 -33 20 -92 20 -40 0
-82 2 -93 5 -11 2 -30 0 -42 -5z"/>
<path d="M9809 12221 c-21 -17 -23 -27 -27 -143 -5 -134 6 -175 48 -198 26
-14 36 -7 61 42 19 36 21 55 17 160 -3 112 -5 121 -27 139 -29 24 -43 24 -72
0z"/>
<path d="M13645 12115 c-16 -13 -20 -29 -21 -88 -2 -39 -6 -91 -9 -114 -6 -38
-3 -49 25 -94 31 -47 32 -52 20 -88 -9 -27 -11 -98 -7 -261 5 -202 7 -225 23
-237 34 -25 49 -12 48 42 -5 301 -4 505 5 527 15 40 9 291 -8 312 -17 20 -50
20 -76 1z"/>
<path d="M9134 10716 c-9 -37 5 -118 19 -113 18 6 32 73 21 104 -12 36 -32 40
-40 9z"/>
<path d="M9024 10224 c-10 -25 -15 -67 -14 -137 1 -56 -3 -118 -9 -137 -21
-67 21 -128 65 -95 11 8 17 24 15 46 -1 19 -2 102 -4 184 -1 83 -6 156 -10
163 -14 21 -27 13 -43 -24z"/>
<path d="M9197 10016 c-19 -19 -33 -172 -20 -213 12 -36 47 -43 63 -12 18 33
9 205 -12 225 -14 14 -17 14 -31 0z"/>
<path d="M14047 10023 c-11 -10 -8 -82 3 -104 6 -10 21 -19 34 -19 38 0 48 48
21 100 -14 28 -43 39 -58 23z"/>
<path d="M13895 9965 c-19 -18 -25 -35 -25 -69 0 -27 6 -51 16 -60 20 -21 26
-20 58 5 21 16 26 29 26 63 0 41 -21 86 -41 86 -5 0 -21 -11 -34 -25z"/>
<path d="M9341 9844 c-37 -47 -18 -124 30 -124 37 0 48 42 28 113 -12 44 -30
47 -58 11z"/>
<path d="M9904 9846 c-9 -24 0 -51 18 -54 21 -4 34 34 18 53 -16 19 -29 19
-36 1z"/>
<path d="M13506 9821 c-15 -17 -17 -30 -12 -78 3 -32 9 -100 11 -152 3 -52 7
-97 10 -99 12 -12 23 55 29 178 5 105 4 139 -6 153 -13 18 -14 17 -32 -2z"/>
<path d="M12783 9518 c-5 -7 -15 -39 -22 -71 -10 -45 -10 -72 -1 -125 9 -48
10 -174 6 -452 -4 -212 -8 -414 -11 -450 -2 -36 -7 -119 -11 -186 -7 -116 -6
-122 15 -143 27 -27 47 -27 63 2 10 16 12 65 10 182 -9 478 -9 836 1 965 16
227 10 290 -28 290 -7 0 -17 -6 -22 -12z"/>
<path d="M11332 9468 c-23 -29 -24 -67 -2 -113 21 -43 22 -55 20 -343 -1 -267
1 -300 16 -313 14 -12 19 -10 35 10 17 21 19 42 19 220 0 108 -5 239 -10 291
-7 66 -6 111 1 146 9 41 9 57 -2 80 -16 32 -58 44 -77 22z"/>
<path d="M11722 9448 c-19 -25 -23 -57 -12 -99 7 -26 13 -153 14 -323 2 -155
6 -289 10 -298 11 -25 25 -22 36 6 5 13 11 145 15 292 4 201 10 283 22 326 15
53 15 59 -1 83 -18 27 -66 35 -84 13z"/>
<path d="M10313 9427 c-17 -22 -18 -54 -21 -472 -2 -365 -5 -457 -17 -492 -19
-56 -19 -103 1 -131 20 -29 50 -28 70 3 14 21 15 37 9 88 -9 66 -9 102 4 647
9 343 7 380 -19 380 -5 0 -17 -11 -27 -23z"/>
<path d="M13485 9421 c-13 -25 -13 -38 -4 -76 6 -24 9 -51 6 -59 -3 -7 -23
-18 -44 -23 -34 -8 -38 -12 -36 -38 1 -16 15 -42 33 -60 35 -36 38 -65 9 -104
-27 -36 -22 -65 11 -68 17 -2 39 10 70 38 37 34 45 47 45 78 0 21 -9 49 -21
66 -30 43 -34 69 -18 115 12 33 12 50 1 97 -6 31 -17 58 -24 60 -6 2 -19 -9
-28 -26z"/>
<path d="M9642 9047 c-25 -26 -28 -47 -10 -65 32 -32 72 3 66 56 -4 35 -28 39
-56 9z"/>
<path d="M11010 8360 c-9 -5 -17 -36 -21 -82 -12 -111 -10 -477 1 -561 7 -51
8 -168 1 -368 -8 -245 -8 -296 4 -308 19 -19 59 -7 72 22 7 15 12 138 14 328
3 357 1 461 -11 549 -6 36 -13 143 -16 238 -7 173 -14 201 -44 182z"/>
<path d="M10268 8175 c-15 -34 0 -79 28 -83 30 -4 46 21 42 65 -3 33 -7 38
-30 41 -22 3 -30 -2 -40 -23z"/>
<path d="M11440 3535 c-61 -19 -146 -80 -187 -133 -69 -91 -82 -234 -31 -343
25 -55 81 -120 145 -169 33 -25 33 -25 35 -458 3 -434 3 -434 28 -454 22 -18
34 -19 115 -13 124 8 143 13 157 38 8 15 12 115 14 317 1 162 6 322 9 355 6
49 4 63 -9 74 -12 10 -19 11 -30 2 -20 -17 -25 -54 -14 -111 10 -55 1 -82 -33
-101 -17 -9 -25 -8 -37 5 -14 14 -16 61 -16 378 -1 363 -1 363 26 366 20 2 31
-4 45 -24 16 -25 18 -48 15 -209 -3 -169 -2 -182 16 -198 16 -15 24 -16 45 -6
33 15 129 135 164 203 20 39 25 65 26 121 0 86 -22 155 -73 222 -40 54 -142
127 -198 143 -51 14 -158 11 -212 -5z"/>
<path d="M9974 3504 c-67 -35 -132 -100 -156 -154 -37 -84 -21 -80 -295 -80
-230 0 -244 -1 -263 -20 -25 -25 -25 -51 -2 -80 18 -23 21 -23 258 -22 131 0
246 -4 255 -9 9 -4 28 -35 42 -67 28 -62 81 -119 151 -162 31 -19 57 -25 123
-28 74 -4 88 -2 137 22 61 30 160 129 184 186 10 21 16 66 16 115 1 61 -4 91
-20 126 -33 70 -88 125 -166 164 -61 30 -80 35 -143 35 -58 0 -81 -5 -121 -26z"/>
<path d="M12891 3502 c-74 -40 -132 -97 -164 -162 -22 -43 -27 -68 -27 -124 0
-57 6 -83 28 -131 16 -33 49 -80 73 -104 100 -99 239 -129 347 -75 62 31 135
109 171 184 26 55 26 55 275 55 248 1 248 1 267 24 26 32 24 56 -7 80 -25 20
-39 21 -264 21 -178 0 -240 3 -247 13 -6 6 -16 28 -22 47 -15 47 -105 139
-167 170 -37 19 -68 25 -129 28 -73 3 -85 0 -134 -26z m307 -274 c8 -8 9 -15
1 -25 -16 -18 -58 -16 -66 3 -11 28 41 46 65 22z"/>
<path d="M8917 1620 c-364 -6 -347 -2 -347 -75 0 -96 52 -313 107 -440 35 -84
139 -291 171 -343 120 -193 295 -386 457 -507 119 -89 245 -170 289 -186 21
-8 49 -26 62 -41 23 -28 23 -28 1843 -28 1810 0 1820 0 1831 20 6 11 34 32 63
46 116 59 349 237 463 356 121 125 197 227 304 408 47 79 120 219 120 231 0 6
11 34 24 62 22 47 59 162 87 272 6 22 11 77 12 123 2 70 -1 86 -16 96 -14 11
-488 13 -2580 12 -1409 0 -2710 -3 -2890 -6z"/>
</g>
</svg>
